<?xml version="1.0" encoding="UTF-8" standalone="no"?>
<!-- Created with Inkscape (http://www.inkscape.org/) -->

<svg
   width="264.90631"
   height="131.028"
   viewBox="0 0 70.089798 34.667819"
   version="1.1"
   id="svg1"
   inkscape:version="1.4 (86a8ad7, 2024-10-11)"
   sodipodi:docname="logo.svg"
   xmlns:inkscape="http://www.inkscape.org/namespaces/inkscape"
   xmlns:sodipodi="http://sodipodi.sourceforge.net/DTD/sodipodi-0.dtd"
   xmlns="http://www.w3.org/2000/svg"
   xmlns:svg="http://www.w3.org/2000/svg">
  <sodipodi:namedview
     id="namedview1"
     pagecolor="#ffffff"
     bordercolor="#000000"
     borderopacity="0.25"
     inkscape:showpageshadow="false"
     inkscape:pageopacity="0.0"
     inkscape:pagecheckerboard="true"
     inkscape:deskcolor="#d1d1d1"
     inkscape:document-units="mm"
     showborder="false"
     borderlayer="false"
     inkscape:antialias-rendering="true"
     inkscape:zoom="1.0167041"
     inkscape:cx="88.029546"
     inkscape:cy="120.48737"
     inkscape:window-width="1174"
     inkscape:window-height="993"
     inkscape:window-x="730"
     inkscape:window-y="0"
     inkscape:window-maximized="0"
     inkscape:current-layer="layer1" />
  <defs
     id="defs1" />
  <g
     inkscape:label="Layer 1"
     inkscape:groupmode="layer"
     id="layer1"
     transform="translate(-22.151019,-12.608459)">
    <g
       id="g2"
       transform="translate(0,2.1166034)">
      <g
         id="g1"
         transform="translate(7.4271045)">
        <path
           style="font-weight:bold;font-size:25.4px;font-family:Oswald;-inkscape-font-specification:'Oswald Bold';fill:#ff6b35;fill-opacity:1;stroke:#ff6b35;stroke-width:0.79375;stroke-dasharray:none;stroke-opacity:1"
           d="m 60.754371,33.858734 v -20.574 h 8.89 v 3.0734 h -4.3434 v 5.1816 h 3.7846 v 3.175 h -3.7846 v 9.144 z"
           id="path3" />
        <g
           id="g3">
          <g
             id="g5">
            <g
               id="g4">
              <path
                 style="font-weight:bold;font-size:25.4px;font-family:Oswald;-inkscape-font-specification:'Oswald Bold';fill:#94a3b8;fill-opacity:1;stroke:#94a3b8;stroke-width:0.79375;stroke-dasharray:none;stroke-opacity:1"
                 d="m 50.111775,33.858734 v -3.937 h 4.0132 v 3.937 z"
                 id="path2" />
              <path
                 style="font-weight:bold;font-size:25.4px;font-family:Oswald;-inkscape-font-specification:'Oswald Bold';fill:#94a3b8;fill-opacity:1;stroke:#94a3b8;stroke-width:0.79375;stroke-dasharray:none;stroke-opacity:1"
                 d="m 50.238775,28.448534 v -3.2766 q 1.143,-0.889 2.032,-1.9812 0.9144,-1.0922 1.4478,-2.3114 0.5334,-1.2446 0.5334,-2.5654 0,-0.9398 -0.3556,-1.3462 -0.3302,-0.4318 -0.9906,-0.4318 -0.5842,0 -0.9398,0.3556 -0.3556,0.3556 -0.3556,0.9906 0,0.4064 0.0762,0.7366 0.1016,0.3048 0.2286,0.6604 l -3.7338,0.8636 q -0.2032,-0.6096 -0.3302,-1.1684 -0.1016,-0.5842 -0.1016,-1.2192 0,-2.2352 1.3462,-3.4798 1.3716,-1.27 3.9116,-1.27 2.5654,0 3.937,1.3462 1.397,1.3462 1.397,3.8354 0,1.524 -0.508,2.8956 -0.508,1.3716 -1.4986,2.5908 -0.9652,1.2192 -2.3622,2.286 v 2.4892 z"
                 id="path1" />
            </g>
          </g>
        </g>
        <path
           style="font-weight:bold;font-size:25.4px;font-family:Oswald;-inkscape-font-specification:'Oswald Bold';fill:#ff6b35;fill-opacity:1;stroke:#ff6b35;stroke-width:0.79375;stroke-dasharray:none;stroke-opacity:1"
           d="m 32.433364,33.858734 -2.4892,-20.574 h 3.8608 l 1.2192,11.9888 1.5494,-11.9634 h 3.0226 l 1.6256,11.8872 1.2446,-11.9126 h 3.809999 l -2.463799,20.574 h -3.9624 l -1.7526,-12.4206 -1.651,12.4206 z"
           id="text1" />
      </g>
      <path
         style="font-size:4.23333px;font-family:Inter;-inkscape-font-specification:Inter;fill:#64748b;stroke:#64748b;stroke-width:0.694;stroke-opacity:0.0117647"
         d="m 27.723697,42.542658 -0.839225,-3.079912 h 0.376205 l 0.49816,1.922361 c 0.02618,0.09922 0.05098,0.198438 0.07441,0.297656 0.02343,0.09922 0.04616,0.198438 0.06821,0.297656 0.02205,0.09922 0.04272,0.198438 0.06201,0.297656 h -0.04341 c 0.02067,-0.09922 0.04203,-0.198437 0.06408,-0.297656 0.02205,-0.09922 0.04478,-0.198437 0.06821,-0.297656 0.02481,-0.09922 0.0503,-0.198437 0.07648,-0.297656 l 0.508496,-1.922361 h 0.429947 l 0.504362,1.922361 c 0.02618,0.09922 0.05167,0.198438 0.07648,0.297656 0.02481,0.09922 0.04823,0.198438 0.07028,0.297656 0.02343,0.09922 0.04547,0.198438 0.06614,0.297656 h -0.04961 c 0.02067,-0.09922 0.04203,-0.198437 0.06408,-0.297656 0.02205,-0.09922 0.04547,-0.198437 0.07028,-0.297656 0.02481,-0.09922 0.04961,-0.198437 0.07441,-0.297656 l 0.496093,-1.922361 h 0.380338 l -0.843358,3.079912 h -0.434082 l -0.539502,-1.984373 c -0.03721,-0.137803 -0.07166,-0.275607 -0.103352,-0.413411 -0.03032,-0.137804 -0.05995,-0.275607 -0.08888,-0.413411 h 0.07855 c -0.02894,0.137804 -0.05857,0.275607 -0.08888,0.413411 -0.03031,0.137804 -0.06407,0.275608 -0.101286,0.413411 l -0.537434,1.984373 z m 4.64054,0.04961 c -0.271473,0 -0.51263,-0.06821 -0.72347,-0.204639 -0.210839,-0.136425 -0.376204,-0.323838 -0.496093,-0.562239 -0.119889,-0.239778 -0.179834,-0.513319 -0.179834,-0.820621 0,-0.310058 0.05994,-0.584287 0.179834,-0.822688 0.119889,-0.239778 0.285254,-0.42788 0.496093,-0.564306 0.21084,-0.136426 0.451997,-0.204639 0.72347,-0.204639 0.272851,0 0.514008,0.06821 0.723469,0.204639 0.21084,0.136426 0.376204,0.324528 0.496093,0.564306 0.119889,0.238401 0.179834,0.51263 0.179834,0.822688 0,0.307302 -0.05994,0.580843 -0.179834,0.820621 -0.119889,0.238401 -0.285253,0.425814 -0.496093,0.562239 -0.209461,0.136426 -0.450618,0.204639 -0.723469,0.204639 z m 0,-0.347266 c 0.186035,0 0.356911,-0.04754 0.512629,-0.142626 0.155719,-0.09646 0.280431,-0.237022 0.374138,-0.42168 0.09371,-0.184656 0.140559,-0.409965 0.140559,-0.675927 0,-0.267339 -0.04685,-0.493337 -0.140559,-0.677994 -0.09371,-0.186035 -0.218419,-0.326595 -0.374138,-0.421679 -0.155718,-0.09646 -0.326594,-0.144694 -0.512629,-0.144694 -0.186035,0 -0.356912,0.04823 -0.51263,0.144694 -0.155718,0.09508 -0.28043,0.235644 -0.374137,0.421679 -0.09371,0.184657 -0.14056,0.410655 -0.14056,0.677994 0,0.265962 0.04685,0.491271 0.14056,0.675927 0.09371,0.184658 0.218419,0.325218 0.374137,0.42168 0.155718,0.09508 0.326595,0.142626 0.51263,0.142626 z m 1.891355,0.297656 v -3.079912 h 1.143082 c 0.214974,0 0.40032,0.0379 0.556038,0.113688 0.157096,0.07579 0.277674,0.183968 0.361735,0.324527 0.08544,0.139182 0.128157,0.304547 0.128157,0.496094 0,0.191547 -0.04547,0.3576 -0.136425,0.49816 -0.08957,0.14056 -0.214974,0.248736 -0.376205,0.324528 -0.16123,0.07579 -0.348643,0.113688 -0.562239,0.113688 h -0.907437 v -0.330729 h 0.928108 c 0.141938,0 0.263894,-0.02412 0.365869,-0.07235 0.103353,-0.04961 0.18259,-0.119886 0.237711,-0.21084 0.05512,-0.09095 0.08268,-0.198436 0.08268,-0.32246 0,-0.125401 -0.02825,-0.232888 -0.08475,-0.322461 -0.05512,-0.08957 -0.134357,-0.158474 -0.237711,-0.206705 -0.101975,-0.04961 -0.22462,-0.07441 -0.367936,-0.07441 h -0.75861 v 2.749183 z m 1.792138,0 -0.74414,-1.384927 h 0.421679 l 0.756542,1.384927 z m 1.13688,-0.880565 v -0.487825 c 0.07166,-0.07993 0.143316,-0.158475 0.214974,-0.235645 l 0.214974,-0.235644 0.219108,-0.235644 0.934309,-1.004589 h 0.491959 l -1.314647,1.401463 h -0.0186 z m -0.252181,0.880565 v -3.079912 h 0.37207 v 1.072801 0.65319 0.181901 1.17202 z m 1.887222,0 -1.130679,-1.581297 0.229443,-0.293522 1.341519,1.874819 z m 1.169954,-3.079912 v 3.079912 h -0.37207 v -3.079912 z m 0.611848,3.079912 v -3.079912 h 0.42788 l 1.269173,2.005044 c 0.02756,0.04272 0.06201,0.09922 0.103352,0.169498 0.04272,0.07028 0.08819,0.146761 0.136426,0.229443 0.04823,0.08131 0.0944,0.16192 0.138493,0.241846 l -0.03514,0.07441 c -0.0027,-0.07304 -0.0062,-0.158474 -0.01034,-0.256315 -0.0027,-0.09784 -0.0048,-0.190858 -0.0062,-0.279053 -0.0014,-0.08819 -0.0021,-0.15365 -0.0021,-0.19637 v -1.988507 h 0.37207 v 3.079912 H 42.563053 L 41.43444,40.760853 c -0.03032,-0.04823 -0.07166,-0.114379 -0.124023,-0.198438 -0.05099,-0.08406 -0.110931,-0.183278 -0.179834,-0.297656 -0.0689,-0.114376 -0.144005,-0.239778 -0.225309,-0.376204 l 0.04341,-0.09922 c 0.0069,0.159853 0.01172,0.303169 0.01447,0.429948 0.0041,0.125402 0.0069,0.233578 0.0083,0.324528 0.0014,0.08957 0.0021,0.160541 0.0021,0.212906 v 1.785936 z m 4.293275,0.04961 c 0,0.272852 -0.515386,-0.06752 -0.727603,-0.202572 -0.21084,-0.136425 -0.376894,-0.323838 -0.498161,-0.562239 -0.121267,-0.239778 -0.1819,-0.514007 -0.1819,-0.822688 0,-0.311436 0.05994,-0.586354 0.179833,-0.824755 0.121267,-0.239778 0.28801,-0.427191 0.500228,-0.562239 0.212217,-0.136426 0.454752,-0.204639 0.727603,-0.204639 0.163987,0 0.317638,0.02549 0.460954,0.07648 0.143316,0.05099 0.271473,0.123334 0.384472,0.217041 0.112999,0.09233 0.207395,0.202572 0.283187,0.330729 0.07579,0.12678 0.126779,0.267339 0.152962,0.421679 h -0.376204 c -0.02343,-0.103352 -0.0627,-0.197748 -0.117822,-0.283186 -0.05375,-0.08544 -0.120582,-0.159163 -0.200505,-0.221175 -0.07993,-0.06201 -0.169498,-0.109555 -0.268717,-0.142627 -0.09922,-0.03445 -0.205328,-0.05168 -0.318327,-0.05168 -0.205327,0 -0.38585,0.05306 -0.541568,0.159163 -0.155718,0.104731 -0.276985,0.250803 -0.363802,0.438216 -0.08682,0.186035 -0.130224,0.401698 -0.130224,0.646988 0,0.243913 0.04341,0.458887 0.130224,0.644921 0.08682,0.186036 0.208084,0.332108 0.363802,0.438216 0.155718,0.104731 0.336241,0.157096 0.541568,0.157096 0.172255,0 0.328662,-0.03858 0.469222,-0.115755 0.14056,-0.07717 0.25287,-0.184656 0.33693,-0.32246 0.08406,-0.137804 0.12609,-0.297656 0.12609,-0.479557 l 0.11989,0.0062 h -0.926041 v -0.330729 h 1.174087 v 0.332796 c 0,0.239779 -0.05788,0.454753 -0.173632,0.644921 -0.114377,0.188792 -0.269407,0.338309 -0.465088,0.448551 -0.195681,0.108866 -0.661458,-0.08199 -0.661458,0.163298 z m 2.6603,-2.798793 v -0.330729 h 2.377113 v 0.330729 h -1.000454 v 2.749183 h -0.37207 v -2.749183 z m 3.879864,2.798793 c -0.271473,0 -0.51263,-0.06821 -0.72347,-0.204639 -0.210839,-0.136425 -0.376204,-0.323838 -0.496093,-0.562239 -0.119889,-0.239778 -0.179834,-0.513319 -0.179834,-0.820621 0,-0.310058 0.05994,-0.584287 0.179834,-0.822688 0.119889,-0.239778 0.285254,-0.42788 0.496093,-0.564306 0.21084,-0.136426 0.451997,-0.204639 0.72347,-0.204639 0.272851,0 0.514008,0.06821 0.723469,0.204639 0.210839,0.136426 0.376204,0.324528 0.496093,0.564306 0.119889,0.238401 0.179834,0.51263 0.179834,0.822688 0,0.307302 -0.05995,0.580843 -0.179834,0.820621 -0.119889,0.238401 -0.285254,0.425814 -0.496093,0.562239 -0.209461,0.136426 -0.450618,0.204639 -0.723469,0.204639 z m 0,-0.347266 c 0.186035,0 0.356911,-0.04754 0.512629,-0.142626 0.155719,-0.09646 0.280431,-0.237022 0.374137,-0.42168 0.09371,-0.184656 0.14056,-0.409965 0.14056,-0.675927 0,-0.267339 -0.04685,-0.493337 -0.14056,-0.677994 -0.09371,-0.186035 -0.218418,-0.326595 -0.374137,-0.421679 -0.155718,-0.09646 -0.326594,-0.144694 -0.512629,-0.144694 -0.186035,0 -0.356912,0.04823 -0.51263,0.144694 -0.155719,0.09508 -0.280431,0.235644 -0.374137,0.421679 -0.09371,0.184657 -0.14056,0.410655 -0.14056,0.677994 0,0.265962 0.04685,0.491271 0.14056,0.675927 0.09371,0.184658 0.218418,0.325218 0.374137,0.42168 0.155718,0.09508 0.326595,0.142626 0.51263,0.142626 z m 2.383314,0.297656 -0.839224,-3.079912 h 0.376204 l 0.49816,1.922361 c 0.02618,0.09922 0.05098,0.198438 0.07441,0.297656 0.02343,0.09922 0.04616,0.198438 0.06821,0.297656 0.02205,0.09922 0.04272,0.198438 0.06201,0.297656 h -0.04341 c 0.02067,-0.09922 0.04203,-0.198437 0.06408,-0.297656 0.02205,-0.09922 0.04478,-0.198437 0.06821,-0.297656 0.02481,-0.09922 0.0503,-0.198437 0.07648,-0.297656 l 0.508496,-1.922361 h 0.429947 l 0.504362,1.922361 c 0.02618,0.09922 0.05167,0.198438 0.07648,0.297656 0.02481,0.09922 0.04823,0.198438 0.07028,0.297656 0.02343,0.09922 0.04548,0.198438 0.06615,0.297656 h -0.04961 c 0.02067,-0.09922 0.04203,-0.198437 0.06408,-0.297656 0.02205,-0.09922 0.04547,-0.198437 0.07028,-0.297656 0.02481,-0.09922 0.04961,-0.198437 0.07441,-0.297656 l 0.496093,-1.922361 h 0.380338 l -0.843358,3.079912 h -0.434082 l -0.539501,-1.984373 c -0.03721,-0.137803 -0.07166,-0.275607 -0.103353,-0.413411 -0.03032,-0.137804 -0.05995,-0.275607 -0.08888,-0.413411 h 0.07855 c -0.02894,0.137804 -0.05857,0.275607 -0.08888,0.413411 -0.03032,0.137804 -0.06408,0.275608 -0.101286,0.413411 l -0.537434,1.984373 z m 2.931085,0 1.136881,-3.079912 h 0.421679 l 1.124478,3.079912 h -0.396875 l -0.646988,-1.856215 c -0.04272,-0.122645 -0.09095,-0.262516 -0.144694,-0.419613 -0.05237,-0.158474 -0.119201,-0.365868 -0.200504,-0.622183 h 0.107487 c -0.08131,0.256315 -0.148829,0.463709 -0.202572,0.622183 -0.05237,0.157097 -0.100598,0.296968 -0.144694,0.419613 l -0.665592,1.856215 z m 0.587044,-0.864029 V 41.3479 h 1.50895 v 0.330729 z m 2.44326,0.864029 v -3.079912 h 1.143081 c 0.214974,0 0.40032,0.0379 0.556038,0.113688 0.157097,0.07579 0.277675,0.183968 0.361735,0.324527 0.08544,0.139182 0.128157,0.304547 0.128157,0.496094 0,0.191547 -0.04548,0.3576 -0.136425,0.49816 -0.08957,0.14056 -0.214974,0.248736 -0.376204,0.324528 -0.161231,0.07579 -0.348644,0.113688 -0.56224,0.113688 H 59.9863 v -0.330729 h 0.928108 c 0.141938,0 0.263894,-0.02412 0.365869,-0.07235 0.103353,-0.04961 0.18259,-0.119886 0.237711,-0.21084 0.05512,-0.09095 0.08268,-0.198436 0.08268,-0.32246 0,-0.125401 -0.02825,-0.232888 -0.08475,-0.322461 -0.05512,-0.08957 -0.134357,-0.158474 -0.237711,-0.206705 -0.101975,-0.04961 -0.22462,-0.07441 -0.367936,-0.07441 h -0.758609 v 2.749183 z m 1.792137,0 -0.74414,-1.384927 h 0.421679 l 0.756542,1.384927 z m 1.835546,0 H 62.667272 V 42.21193 h 0.715201 c 0.254937,0 0.465777,-0.04892 0.632519,-0.146761 0.166743,-0.09784 0.290766,-0.237711 0.37207,-0.419613 0.08268,-0.1819 0.124024,-0.398252 0.124024,-0.649055 0,-0.248046 -0.04065,-0.461642 -0.121957,-0.640787 -0.07993,-0.180523 -0.200504,-0.319016 -0.361734,-0.415479 -0.161231,-0.09784 -0.362424,-0.14676 -0.603581,-0.14676 h -0.773078 v -0.330729 h 0.797883 c 0.299034,0 0.555349,0.06132 0.768945,0.183968 0.214973,0.122646 0.379649,0.299034 0.494026,0.529166 0.114377,0.228754 0.171566,0.502295 0.171566,0.820621 0,0.321083 -0.05788,0.597379 -0.173633,0.828889 -0.115755,0.230132 -0.283876,0.40721 -0.504362,0.531233 -0.219107,0.124024 -0.485068,0.186035 -0.797883,0.186035 z m -0.578776,-3.079912 v 3.079912 h -0.37207 v -3.079912 z m 3.563604,3.129522 c 0.237023,0 -0.44235,-0.04203 -0.615983,-0.126091 -0.173633,-0.08544 -0.307991,-0.206016 -0.403076,-0.361734 -0.09508,-0.155718 -0.142626,-0.340375 -0.142626,-0.553971 h 0.380338 c 0,0.146072 0.03032,0.272163 0.09095,0.378271 0.06201,0.104731 0.151586,0.185346 0.268718,0.241845 0.117133,0.05512 0.257692,0.08268 0.421679,0.08268 0.150206,0 0.28043,-0.02205 0.390673,-0.06615 0.111621,-0.0441 0.198438,-0.1068 0.260449,-0.188102 0.06201,-0.0813 0.09302,-0.177077 0.09302,-0.287321 0,-0.08544 -0.01998,-0.159852 -0.05994,-0.223242 -0.03996,-0.06339 -0.104728,-0.118508 -0.194303,-0.165364 -0.08819,-0.04823 -0.206706,-0.09026 -0.355534,-0.126091 l -0.345198,-0.08475 c -0.314192,-0.07717 -0.540879,-0.180522 -0.680061,-0.310058 -0.139182,-0.129536 -0.208773,-0.299034 -0.208773,-0.508496 0,-0.177766 0.04341,-0.332106 0.130225,-0.46302 0.08819,-0.132292 0.212217,-0.234956 0.37207,-0.307992 0.159852,-0.07304 0.346576,-0.109554 0.560172,-0.109554 0.213595,0 0.398941,0.03927 0.556038,0.117822 0.158474,0.07717 0.281808,0.187414 0.370003,0.330729 0.08819,0.143316 0.135047,0.313504 0.14056,0.510563 h -0.367936 c -0.01103,-0.192925 -0.07993,-0.34382 -0.206706,-0.452685 -0.126779,-0.110243 -0.2949,-0.165365 -0.504361,-0.165365 -0.132292,0 -0.250114,0.02205 -0.353467,0.06615 -0.101975,0.0441 -0.18259,0.105423 -0.241845,0.183968 -0.05788,0.07855 -0.08682,0.16881 -0.08682,0.270784 0,0.07993 0.02067,0.149518 0.06201,0.208773 0.04134,0.05925 0.106797,0.111619 0.19637,0.157096 0.09095,0.04547 0.21084,0.08682 0.359668,0.124024 l 0.349332,0.08682 c 0.150206,0.03721 0.280431,0.08199 0.390674,0.134359 0.110243,0.05237 0.201193,0.113 0.272851,0.1819 0.07304,0.0689 0.127468,0.147451 0.163297,0.235645 0.03583,0.08682 0.05374,0.183968 0.05374,0.291455 0,0.177767 -0.04685,0.334174 -0.14056,0.469221 -0.09233,0.135048 -0.222553,0.240468 -0.390673,0.31626 -0.166743,0.07441 -0.808219,0.111621 -0.584977,0.111621 z m 2.641696,-0.04961 v -3.079912 h 1.936831 v 0.330729 h -1.564761 v 1.006656 h 1.440738 v 0.330728 h -1.440738 v 1.411799 z m 1.697053,0 1.13688,-3.079912 h 0.421679 l 1.124479,3.079912 H 73.017018 L 72.37003,40.686443 c -0.04272,-0.122645 -0.09095,-0.262516 -0.144694,-0.419613 -0.05237,-0.158474 -0.119202,-0.365868 -0.200505,-0.622183 h 0.107487 c -0.0813,0.256315 -0.148828,0.463709 -0.202571,0.622183 -0.05237,0.157097 -0.100598,0.296968 -0.144694,0.419613 l -0.665592,1.856215 z m 0.587043,-0.864029 V 41.3479 h 1.508951 v 0.330729 z m 2.81533,-2.215883 v 3.079912 h -0.37207 v -3.079912 z m 0.611847,3.079912 v -3.079912 h 1.143082 c 0.214974,0 0.40032,0.0379 0.556038,0.113688 0.157096,0.07579 0.277674,0.183968 0.361735,0.324527 0.08544,0.139182 0.128157,0.304547 0.128157,0.496094 0,0.191547 -0.04548,0.3576 -0.136426,0.49816 -0.08957,0.14056 -0.214973,0.248736 -0.376204,0.324528 -0.16123,0.07579 -0.348643,0.113688 -0.562239,0.113688 h -0.907437 v -0.330729 h 0.928108 c 0.141938,0 0.263894,-0.02412 0.365869,-0.07235 0.103353,-0.04961 0.18259,-0.119886 0.237711,-0.21084 0.05512,-0.09095 0.08268,-0.198436 0.08268,-0.32246 0,-0.125401 -0.02825,-0.232888 -0.08475,-0.322461 -0.05512,-0.08957 -0.134357,-0.158474 -0.237711,-0.206705 -0.101975,-0.04961 -0.224621,-0.07441 -0.367936,-0.07441 h -0.75861 v 2.749183 z m 1.792137,0 -0.74414,-1.384927 h 0.42168 l 0.756542,1.384927 z m 0.884701,0 v -3.079912 h 0.427881 l 1.269172,2.005044 c 0.02756,0.04272 0.06201,0.09922 0.103353,0.169498 0.04272,0.07028 0.08819,0.146761 0.136425,0.229443 0.04823,0.08131 0.0944,0.16192 0.138493,0.241846 l -0.03514,0.07441 c -0.0027,-0.07304 -0.0062,-0.158474 -0.01033,-0.256315 -0.0027,-0.09784 -0.0048,-0.190858 -0.0062,-0.279053 -0.0014,-0.08819 -0.0021,-0.15365 -0.0021,-0.19637 v -1.988507 h 0.37207 v 3.079912 H 79.383522 L 78.25491,40.760853 c -0.03032,-0.04823 -0.07166,-0.114379 -0.124024,-0.198438 -0.05099,-0.08406 -0.110931,-0.183278 -0.179834,-0.297656 -0.0689,-0.114376 -0.144004,-0.239778 -0.225309,-0.376204 l 0.04341,-0.09922 c 0.0069,0.159853 0.01171,0.303169 0.01447,0.429948 0.0041,0.125402 0.0069,0.233578 0.0083,0.324528 0.0014,0.08957 0.0021,0.160541 0.0021,0.212906 v 1.785936 z m 3.005501,0 v -3.079912 h 2.002977 v 0.330729 h -1.630907 v 1.006656 h 1.511018 v 0.330728 h -1.511018 v 1.081071 h 1.630907 v 0.330728 z m 3.470586,0.04961 c 0.237023,0 -0.44235,-0.04203 -0.615983,-0.126091 -0.173633,-0.08544 -0.307991,-0.206016 -0.403076,-0.361734 -0.09508,-0.155718 -0.142627,-0.340375 -0.142627,-0.553971 h 0.380339 c 0,0.146072 0.03032,0.272163 0.09095,0.378271 0.06201,0.104731 0.151586,0.185346 0.268717,0.241845 0.117133,0.05512 0.257693,0.08268 0.42168,0.08268 0.150206,0 0.28043,-0.02205 0.390673,-0.06615 0.111621,-0.0441 0.198438,-0.1068 0.260449,-0.188102 0.06201,-0.0813 0.09302,-0.177077 0.09302,-0.287321 0,-0.08544 -0.01998,-0.159852 -0.05994,-0.223242 -0.03996,-0.06339 -0.104728,-0.118508 -0.194303,-0.165364 -0.0882,-0.04823 -0.206706,-0.09026 -0.355534,-0.126091 l -0.345198,-0.08475 c -0.314193,-0.07717 -0.54088,-0.180522 -0.680061,-0.310058 -0.139182,-0.129536 -0.208773,-0.299034 -0.208773,-0.508496 0,-0.177766 0.04341,-0.332106 0.130225,-0.46302 0.08819,-0.132292 0.212217,-0.234956 0.37207,-0.307992 0.159852,-0.07304 0.346576,-0.109554 0.560172,-0.109554 0.213595,0 0.398941,0.03927 0.556038,0.117822 0.158474,0.07717 0.281808,0.187414 0.370002,0.330729 0.08819,0.143316 0.135048,0.313504 0.14056,0.510563 h -0.367936 c -0.01103,-0.192925 -0.07993,-0.34382 -0.206705,-0.452685 -0.126779,-0.110243 -0.2949,-0.165365 -0.504362,-0.165365 -0.132291,0 -0.250113,0.02205 -0.353466,0.06615 -0.101975,0.0441 -0.18259,0.105423 -0.241846,0.183968 -0.05788,0.07855 -0.08682,0.16881 -0.08682,0.270784 0,0.07993 0.02067,0.149518 0.06201,0.208773 0.04134,0.05925 0.106797,0.111619 0.19637,0.157096 0.09095,0.04547 0.21084,0.08682 0.359668,0.124024 l 0.349332,0.08682 c 0.150206,0.03721 0.28043,0.08199 0.390673,0.134359 0.110243,0.05237 0.201194,0.113 0.272852,0.1819 0.07304,0.0689 0.127468,0.147451 0.163297,0.235645 0.03583,0.08682 0.05374,0.183968 0.05374,0.291455 0,0.177767 -0.04685,0.334174 -0.14056,0.469221 -0.09233,0.135048 -0.222553,0.240468 -0.390674,0.31626 -0.166742,0.07441 -0.808218,0.111621 -0.584976,0.111621 z m 2.600357,0 c 0.237023,0 -0.44235,-0.04203 -0.615983,-0.126091 -0.173633,-0.08544 -0.307991,-0.206016 -0.403076,-0.361734 -0.09508,-0.155718 -0.142627,-0.340375 -0.142627,-0.553971 h 0.380339 c 0,0.146072 0.03032,0.272163 0.09095,0.378271 0.06201,0.104731 0.151586,0.185346 0.268717,0.241845 0.117133,0.05512 0.257693,0.08268 0.42168,0.08268 0.150206,0 0.28043,-0.02205 0.390673,-0.06615 0.111621,-0.0441 0.198438,-0.1068 0.260449,-0.188102 0.06201,-0.0813 0.09302,-0.177077 0.09302,-0.287321 0,-0.08544 -0.01998,-0.159852 -0.05994,-0.223242 -0.03996,-0.06339 -0.104728,-0.118508 -0.194303,-0.165364 -0.08819,-0.04823 -0.206706,-0.09026 -0.355534,-0.126091 l -0.345198,-0.08475 c -0.314193,-0.07717 -0.54088,-0.180522 -0.680061,-0.310058 -0.139182,-0.129536 -0.208773,-0.299034 -0.208773,-0.508496 0,-0.177766 0.04341,-0.332106 0.130225,-0.46302 0.08819,-0.132292 0.212217,-0.234956 0.37207,-0.307992 0.159852,-0.07304 0.346576,-0.109554 0.560172,-0.109554 0.213595,0 0.398941,0.03927 0.556038,0.117822 0.158474,0.07717 0.281808,0.187414 0.370003,0.330729 0.08819,0.143316 0.135047,0.313504 0.140559,0.510563 h -0.367936 c -0.01103,-0.192925 -0.07993,-0.34382 -0.206705,-0.452685 -0.126779,-0.110243 -0.2949,-0.165365 -0.504362,-0.165365 -0.132291,0 -0.250113,0.02205 -0.353466,0.06615 -0.101975,0.0441 -0.18259,0.105423 -0.241846,0.183968 -0.05788,0.07855 -0.08682,0.16881 -0.08682,0.270784 0,0.07993 0.02067,0.149518 0.06201,0.208773 0.04134,0.05925 0.106797,0.111619 0.19637,0.157096 0.09095,0.04547 0.21084,0.08682 0.359668,0.124024 l 0.349332,0.08682 c 0.150206,0.03721 0.28043,0.08199 0.390673,0.134359 0.110243,0.05237 0.201194,0.113 0.272852,0.1819 0.07304,0.0689 0.127468,0.147451 0.163297,0.235645 0.03583,0.08682 0.05374,0.183968 0.05374,0.291455 0,0.177767 -0.04685,0.334174 -0.14056,0.469221 -0.09233,0.135048 -0.222553,0.240468 -0.390674,0.31626 -0.166742,0.07441 -0.808218,0.111621 -0.584976,0.111621 z"
         id="text5"
         aria-label="WORKING TOWARDS FAIRNESS"
         sodipodi:nodetypes="ccccssccscccccscccsscccccccccscccsscscssccsccsscssccsccsscsccsccscssccscssccscccccccccccccccccccccccccccccccccccccccccccccssccccccsccccsccsccsccsscccccscsccsscssscccccsccsscccccccccsscscssccsccsscssccsccsscsccccssccscccccscccsscccccccccscccccccccccccccccccccccsccscssccscssccsccccccccsccsscsccsccsccsccscccccscsccccscssscccsscsscscccsccsscccsccsccssccccccccccccccccccccccccccccccccccccsccscssccscssccscccccccccccccccccssccccccsccccscccccccccccccccscsccccscssscccsscsscscccsccsscccsccsccssscsccccscssscccsscsscscccsccsscccsccsccss" />
    </g>
  </g>
</svg>
